HIERARCHY
ROOT Hips
{
	OFFSET 0.000000 0.000000 0.000000
	CHANNELS 6 Xposition Yposition Zposition Zrotation Yrotation Xrotation 
	JOINT LHipJoint
	{
		OFFSET 0.000000 0.000000 0.000000
		CHANNELS 3 Zrotation Yrotation Xrotation
		JOINT LeftUpLeg
		{
			OFFSET 1.363060 -1.794630 0.839290
			CHANNELS 3 Zrotation Yrotation Xrotation
			JOINT LeftLeg
			{
				OFFSET 2.448110 -6.726130 0.000000
				CHANNELS 3 Zrotation Yrotation Xrotation
				JOINT LeftFoot
				{
					OFFSET 2.562200 -7.039590 0.000000
					CHANNELS 3 Zrotation Yrotation Xrotation
					JOINT LeftToeBase
					{
						OFFSET 0.157640 -0.433110 2.322550
						CHANNELS 3 Zrotation Yrotation Xrotation
						End Site
						{
							OFFSET 0.000000 0.000000 0.000000
						}
					}
				}
			}
		}
	}
	JOINT RHipJoint
	{
		OFFSET 0.000000 0.000000 0.000000
		CHANNELS 3 Zrotation Yrotation Xrotation
		JOINT RightUpLeg
		{
			OFFSET -1.305520 -1.794630 0.839290
			CHANNELS 3 Zrotation Yrotation Xrotation
			JOINT RightLeg
			{
				OFFSET -2.542530 -6.985550 0.000000
				CHANNELS 3 Zrotation Yrotation Xrotation
				JOINT RightFoot
				{
					OFFSET -2.568260 -7.056230 0.000000
					CHANNELS 3 Zrotation Yrotation Xrotation
					JOINT RightToeBase
					{
						OFFSET -0.164730 -0.452590 2.363150
						CHANNELS 3 Zrotation Yrotation Xrotation
						End Site
						{
							OFFSET 0.000000 0.000000 0.000000
						}
					}
				}
			}
		}
	}
	JOINT LowerBack
	{
		OFFSET 0.000000 0.000000 0.000000
		CHANNELS 3 Zrotation Yrotation Xrotation
		JOINT Spine
		{
			OFFSET 0.028270 2.035590 -0.193380
			CHANNELS 3 Zrotation Yrotation Xrotation
			JOINT Spine1
			{
				OFFSET 0.056720 2.048850 -0.042750
				CHANNELS 3 Zrotation Yrotation Xrotation
				JOINT Neck
				{
					OFFSET 0.000000 0.000000 0.000000
					CHANNELS 3 Zrotation Yrotation Xrotation
					JOINT Neck1
					{
						OFFSET -0.054170 1.746240 0.172020
						CHANNELS 3 Zrotation Yrotation Xrotation
						JOINT Head
						{
							OFFSET 0.104070 1.761360 -0.123970
							CHANNELS 3 Zrotation Yrotation Xrotation
							End Site
							{
								OFFSET 0.000000 0.000000 0.000000
							}
						}
					}
				}
				JOINT LeftShoulder
				{
					OFFSET 0.000000 0.000000 0.000000
					CHANNELS 3 Zrotation Yrotation Xrotation
					JOINT LeftArm
					{
						OFFSET 3.362410 1.200890 -0.311210
						CHANNELS 3 Zrotation Yrotation Xrotation
						JOINT LeftForeArm
						{
							OFFSET 4.983000 -0.000000 -0.000000
							CHANNELS 3 Zrotation Yrotation Xrotation
							JOINT LeftHand
							{
								OFFSET 3.483560 -0.000000 -0.000000
								CHANNELS 3 Zrotation Yrotation Xrotation
								JOINT LeftFingerBase
								{
									OFFSET 0.000000 0.000000 0.000000
									CHANNELS 3 Zrotation Yrotation Xrotation
									JOINT LeftHandIndex1
									{
										OFFSET 0.715260 -0.000000 -0.000000
										CHANNELS 3 Zrotation Yrotation Xrotation
										End Site
										{
											OFFSET 0.000000 0.000000 0.000000
										}
									}
								}
								JOINT LThumb
								{
									OFFSET 0.000000 0.000000 0.000000
									CHANNELS 3 Zrotation Yrotation Xrotation
									End Site
									{
										OFFSET 0.000000 0.000000 0.000000
									}
								}
							}
						}
					}
				}
				JOINT RightShoulder
				{
					OFFSET 0.000000 0.000000 0.000000
					CHANNELS 3 Zrotation Yrotation Xrotation
					JOINT RightArm
					{
						OFFSET -3.136600 1.374050 -0.404650
						CHANNELS 3 Zrotation Yrotation Xrotation
						JOINT RightForeArm
						{
							OFFSET -5.241900 -0.000000 -0.000000
							CHANNELS 3 Zrotation Yrotation Xrotation
							JOINT RightHand
							{
								OFFSET -3.444170 -0.000000 -0.000000
								CHANNELS 3 Zrotation Yrotation Xrotation
								JOINT RightFingerBase
								{
									OFFSET 0.000000 0.000000 0.000000
									CHANNELS 3 Zrotation Yrotation Xrotation
									JOINT RightHandIndex1
									{
										OFFSET -0.622530 -0.000000 -0.000000
										CHANNELS 3 Zrotation Yrotation Xrotation
										End Site
										{
											OFFSET 0.000000 0.000000 0.000000
										}
									}
								}
								JOINT RThumb
								{
									OFFSET 0.000000 0.000000 0.000000
									CHANNELS 3 Zrotation Yrotation Xrotation
									End Site
									{
										OFFSET 0.000000 0.000000 0.000000
									}
								}
							}
						}
					}
				}
			}
		}
	}
}
MOTION
Frames: 11
Frame Time: 0.008333
8.184857 16.011484 -2.063998 -145.559327 78.315882 -122.514114 -13.617883 -0.424581 -3.767769 -8.609496 7.660256 -43.781860 3.699644 5.812299 95.315015 3.044433 18.397947 -15.028674 -2.076000 0.000000 -14.710500 8.178541 -1.184413 1.190019 6.490987 8.330493 -33.210933 1.593938 -2.671931 45.428149 -1.778828 -4.360942 -19.248156 1.117601 -0.000000 -69.469000 3.479937 -1.767831 4.264467 -0.656716 -1.860014 -2.210957 -8.602112 -1.797296 -0.368568 10.156779 -2.705101 -1.372267 -3.744856 -0.332269 1.488791 0.000000 0.000000 0.000000 0.634476 8.984161 1.648852 -66.193779 28.672491 26.059681 -0.972418 -64.277745 -0.002289 10.151557 6.306560 0.571996 -0.111939 -0.049358 -0.000000 0.000000 0.000000 0.000000 0.000000 0.000000 0.000000 13.941709 0.075436 -3.118783 79.258149 23.660888 27.070549 179.861260 89.276160 179.988105 -1.554835 13.051186 -0.186659 0.010323 -0.600952 -0.000000 0.000000 0.000000 0.000000 0.000000 0.000000 0.000000 
8.396370 16.131369 -2.155787 -147.046838 78.256825 -123.930620 -13.343013 -0.624612 -3.605946 -9.020111 7.370839 -45.089121 3.331914 5.644913 93.020233 3.101700 18.547649 -15.560027 -2.258400 -0.000001 -14.337200 8.286134 -1.276554 1.174630 6.049188 8.145264 -31.731740 1.538736 -2.566793 43.748008 -1.619289 -4.261072 -16.924194 0.822700 0.000000 -71.914700 2.847864 -1.539498 4.135328 -0.772228 -1.608685 -2.276149 -8.527137 -1.548236 -0.555251 9.815957 -2.614074 -1.033841 -3.527554 -0.323414 1.586751 0.000000 0.000000 0.000000 0.675161 9.279926 1.492398 -64.591257 30.775565 27.683357 -0.905605 -67.156233 -0.001174 9.793306 5.099825 0.446960 -0.115121 -0.044672 -0.000000 0.000000 0.000000 0.000000 0.000000 0.000000 0.000000 12.459141 0.397592 -3.377590 80.762048 25.619072 27.776747 179.806539 87.948987 179.990358 -1.048507 13.140974 -0.125816 -0.001001 -0.622826 -0.000000 0.000000 0.000000 0.000000 0.000000 0.000000 0.000000 
8.608610 16.261155 -2.254909 -148.582486 78.173881 -125.425095 -13.067054 -0.808094 -3.445056 -9.407456 7.084498 -46.198000 2.931772 5.457258 90.325342 3.164943 18.689448 -16.038112 -2.427199 -0.000000 -13.935800 8.393135 -1.373781 1.111440 5.623977 7.832474 -30.212821 1.472464 -2.471784 41.978350 -1.444757 -4.122421 -14.210306 0.500700 -0.000000 -74.348500 2.232127 -1.297007 4.065048 -0.882680 -1.340265 -2.337280 -8.436226 -1.283790 -0.760272 9.464418 -2.507553 -0.693392 -3.316235 -0.315047 1.684062 0.000000 0.000000 0.000000 0.672863 9.563662 1.334083 -62.969312 32.637106 29.194023 -0.837600 -69.937072 -0.000321 9.498638 4.017034 0.342024 -0.118353 -0.038571 -0.000000 0.000000 0.000000 0.000000 0.000000 0.000000 0.000000 11.003567 0.728392 -3.640487 81.976991 27.368779 28.217389 179.752656 86.622835 179.991450 -0.691393 13.186804 -0.081967 -0.010638 -0.643282 -0.000000 0.000000 0.000000 0.000000 0.000000 0.000000 0.000000 
8.821698 16.399231 -2.360836 -150.186441 78.060993 -127.027148 -12.791558 -0.971087 -3.286255 -9.773405 6.804051 -47.075379 2.505617 5.246149 87.218703 3.228947 18.790625 -16.437467 -2.568500 0.000000 -13.560100 8.499967 -1.473313 0.999601 5.212583 7.384368 -28.634800 1.396253 -2.385340 40.106677 -1.276030 -4.004667 -11.155592 0.173100 0.000000 -76.588800 1.629756 -1.046794 4.056190 -0.988510 -1.061556 -2.391582 -8.329986 -1.010389 -0.976690 9.110401 -2.366373 -0.355635 -3.113170 -0.307211 1.779287 0.000000 0.000000 0.000000 0.665597 9.820137 1.182592 -61.413704 34.261705 30.555441 -0.769899 -72.541234 0.000277 9.261539 3.122163 0.259786 -0.121639 -0.032085 -0.000000 0.000000 0.000000 0.000000 0.000000 0.000000 0.000000 9.597049 1.082680 -3.895850 82.876728 28.908162 28.383241 179.702350 85.313329 179.991793 -0.470479 13.216906 -0.054407 -0.018685 -0.662776 -0.000000 0.000000 0.000000 0.000000 0.000000 0.000000 0.000000 
9.036083 16.543364 -2.472825 -151.878642 77.911629 -128.758340 -12.517684 -1.110624 -3.128133 -10.123159 6.528590 -47.702106 2.061391 5.008236 83.695128 3.288430 18.821548 -16.726829 -2.665900 0.000000 -13.275800 8.606581 -1.571860 0.843052 4.809964 6.804144 -26.987513 1.312101 -2.304873 38.130806 -1.134152 -3.969563 -7.840661 -0.147800 0.000000 -78.387500 1.037058 -0.796023 4.103032 -1.090284 -0.780361 -2.437586 -8.209889 -0.735382 -1.197063 8.760275 -2.189006 -0.027770 -2.919511 -0.299883 1.870551 0.000000 0.000000 0.000000 0.684217 10.034992 1.042367 -59.992247 35.683189 31.737454 -0.703319 -74.935831 0.000636 9.078661 2.442403 0.199644 -0.125016 -0.026029 -0.000000 0.000000 0.000000 0.000000 0.000000 0.000000 0.000000 8.254955 1.458392 -4.133219 83.464522 30.250456 28.291962 179.657499 84.040547 179.991294 -0.362028 13.245754 -0.040542 -0.025291 -0.681429 -0.000000 0.000000 0.000000 0.000000 0.000000 0.000000 0.000000 
9.252256 16.690867 -2.589863 -153.667503 77.719042 -130.622307 -12.246411 -1.225028 -2.967172 -10.463133 6.254371 -48.075763 1.608734 4.740942 79.760322 3.338704 18.759944 -16.872210 -2.702700 0.000000 -13.146500 8.712481 -1.665972 0.649932 4.410248 6.106438 -25.273284 1.222557 -2.227420 36.065459 -1.036671 -4.073561 -4.373020 -0.464400 -0.000001 -79.495400 0.450873 -0.552176 4.192678 -1.188341 -0.504978 -2.475407 -8.077358 -0.466633 -1.414771 8.416280 -1.983222 0.281749 -2.734900 -0.292941 1.955852 0.000000 0.000000 0.000000 0.755195 10.204742 0.915329 -58.749746 36.944083 32.725502 -0.638356 -77.120660 0.000790 8.943744 1.968648 0.158799 -0.128535 -0.020805 -0.000000 0.000000 0.000000 0.000000 0.000000 0.000000 0.000000 6.979795 1.846206 -4.346898 83.773610 31.413500 27.977073 179.619880 82.826783 179.990173 -0.335381 13.276374 -0.036868 -0.030784 -0.699106 -0.000000 0.000000 0.000000 0.000000 0.000000 0.000000 0.000000 
9.470839 16.838585 -2.710960 -155.544938 77.476118 -132.598570 -11.978450 -1.313690 -2.797863 -10.800709 5.974611 -48.211448 1.158233 4.442773 75.432179 3.376245 18.593795 -16.841907 -2.664700 -0.000001 -13.218300 8.817199 -1.752655 0.431619 4.008363 5.314044 -23.509286 1.130495 -2.150117 33.942890 -0.994681 -4.360657 -0.879945 -0.793200 0.000000 -79.749900 -0.131185 -0.322018 4.306202 -1.283114 -0.243038 -2.506026 -7.934636 -0.211303 -1.621401 8.080735 -1.776062 0.561382 -2.559814 -0.286284 2.032460 0.000000 0.000000 0.000000 0.895560 10.334842 0.799704 -57.703830 38.086739 33.519311 -0.574880 -79.122335 0.000760 8.848373 1.660642 0.132751 -0.132212 -0.016361 -0.000000 0.000000 0.000000 0.000000 0.000000 0.000000 0.000000 5.778498 2.219167 -4.533507 83.851263 32.433752 27.497181 179.590225 81.698475 179.988656 -0.362134 13.301277 -0.039688 -0.035323 -0.715399 -0.000000 0.000000 0.000000 0.000000 0.000000 0.000000 0.000000 
9.692314 16.983187 -2.835097 -157.482367 77.177283 -134.642041 -11.714764 -1.376868 -2.613663 -11.141112 5.681662 -48.139680 0.720295 4.113958 70.742486 3.399137 18.323008 -16.614841 -2.544300 0.000000 -13.499100 8.920183 -1.829767 0.200966 3.602057 4.456539 -21.726097 1.038777 -2.071148 31.818480 -1.010991 -4.853369 2.492932 -1.158200 -0.000000 -78.997600 -0.708767 -0.111287 4.421501 -1.374356 -0.001143 -2.532620 -7.783262 0.024210 -1.813860 7.750963 -1.580163 0.804050 -2.392655 -0.279728 2.098980 0.000000 0.000000 0.000000 1.118288 10.438095 0.695101 -56.855210 39.146529 34.128891 -0.512676 -80.977408 0.000577 8.776776 1.458165 0.115701 -0.136014 -0.012205 -0.000000 0.000000 0.000000 0.000000 0.000000 0.000000 0.000000 4.638300 2.566689 -4.695424 83.758918 33.327856 26.890721 179.568858 80.670757 179.987008 -0.405406 13.308125 -0.044606 -0.039596 -0.729944 -0.000000 0.000000 0.000000 0.000000 0.000000 0.000000 0.000000 
9.917081 17.121450 -2.961455 -159.434539 76.818525 -136.688700 -11.456359 -1.415427 -2.407571 -11.488194 5.366540 -47.901605 0.303594 3.755829 65.733282 3.407483 17.960224 -16.186179 -2.343100 -0.000000 -13.955700 9.021181 -1.896512 -0.029550 3.192008 3.565183 -19.963891 0.950087 -1.990240 29.763191 -1.080136 -5.547272 5.595868 -1.579399 -0.000000 -77.178500 -1.279546 0.076304 4.516124 -1.461835 0.216286 -2.558189 -7.625736 0.235705 -1.987023 7.426937 -1.422303 1.001005 -2.233861 -0.273182 2.153521 0.000000 0.000000 0.000000 1.422588 10.529026 0.598477 -56.185600 40.148065 34.568349 -0.450910 -82.732656 0.000272 8.711494 1.291570 0.101652 -0.139802 -0.007574 -0.000000 0.000000 0.000000 0.000000 0.000000 0.000000 0.000000 3.559764 2.864668 -4.834183 83.550429 34.130114 26.211851 179.554941 79.759268 179.985482 -0.440892 13.283233 -0.048420 -0.043865 -0.742330 -0.000000 0.000000 0.000000 0.000000 0.000000 0.000000 0.000000 
10.145273 17.250292 -3.089570 -161.323499 76.396824 -138.641503 -11.205973 -1.431782 -2.172813 -11.834881 5.023893 -47.547856 -0.085975 3.371118 60.458437 3.402667 17.525025 -15.572889 -2.072100 0.000000 -14.517800 9.117966 -1.954389 -0.248424 2.789737 2.676950 -18.267682 0.867191 -1.908686 27.857644 -1.190508 -6.412143 8.285514 -2.061800 0.000000 -74.288899 -1.831438 0.239464 4.568713 -1.543175 0.407055 -2.587226 -7.463467 0.420931 -2.141535 7.104047 -1.302229 1.150195 -2.081581 -0.266485 2.196015 0.000000 0.000000 0.000000 1.801797 10.624071 0.510184 -55.676926 41.102216 34.849321 -0.388892 -84.424923 -0.000130 8.626304 1.098027 0.085503 -0.143298 -0.001583 -0.000000 0.000000 0.000000 0.000000 0.000000 0.000000 0.000000 2.522768 3.116472 -4.955117 83.276560 34.842721 25.478144 179.547781 78.961575 179.984295 -0.440154 13.217507 -0.047634 -0.048861 -0.752452 -0.000000 0.000000 0.000000 0.000000 0.000000 0.000000 0.000000 
10.376777 17.367397 -3.219084 -163.103995 75.913646 -140.443338 -10.965137 -1.427646 -1.904709 -12.179155 4.645339 -47.116809 -0.446569 2.961052 54.969713 3.387814 17.046602 -14.811164 -1.750000 -0.000000 -15.108400 9.210710 -2.005254 -0.449918 2.399218 1.814950 -16.672872 0.792412 -1.829892 26.174537 -1.325994 -7.385769 10.454288 -2.585400 0.000000 -70.572100 -2.359862 0.378823 4.567127 -1.618472 0.571628 -2.620435 -7.300456 0.580582 -2.269714 6.789285 -1.257205 1.243713 -1.940037 -0.259748 2.224451 0.000000 0.000000 0.000000 2.233827 10.732563 0.425043 -55.297960 42.005149 34.981595 -0.325399 -86.093467 -0.000589 8.506769 0.821362 0.062856 -0.146139 0.006606 -0.000000 0.000000 0.000000 0.000000 0.000000 0.000000 0.000000 1.554261 3.287550 -5.055504 82.958653 35.515008 24.750892 179.544755 78.287461 179.983557 -0.409163 13.107422 -0.042841 -0.053941 -0.760138 -0.000000 0.000000 0.000000 0.000000 0.000000 0.000000 0.000000 
